<svg xmlns="http://www.w3.org/2000/svg" viewBox="0 0 900 675" role="img" aria-label="Blue betta fish illustration">
  <rect width="900" height="675" fill="#e8f3f4" />
  <circle cx="158" cy="112" r="42" fill="#ffffff" opacity=".85" />
  <circle cx="756" cy="124" r="26" fill="#ffffff" opacity=".75" />
  <circle cx="732" cy="522" r="54" fill="#ffffff" opacity=".6" />
  <path d="M235 343c94-132 287-176 433-83-29 84-92 136-188 157-91 20-172-2-245-74z" fill="#1f77b4" />
  <path d="M596 268c94-67 174-64 240 10-65 56-144 66-239 31z" fill="#0f766e" />
  <path d="M594 402c104 25 177 79 220 163-94 24-178-13-252-111z" fill="#115e59" />
  <path d="M300 325c-58-62-139-72-243-29 52 82 126 110 222 81z" fill="#e76f51" />
  <path d="M376 260c19-65 61-111 126-138 19 66 3 122-49 168z" fill="#6bbfca" />
  <path d="M392 418c11 70 50 121 116 154 31-67 19-126-37-177z" fill="#f2b84b" />
  <circle cx="547" cy="304" r="17" fill="#14213d" />
  <circle cx="553" cy="298" r="5" fill="#ffffff" />
  <path d="M355 343c74-31 151-33 230-6" fill="none" stroke="#ffffff" stroke-width="12" stroke-linecap="round" opacity=".55" />
</svg>
