<svg xmlns="http://www.w3.org/2000/svg" viewBox="0 0 900 675" role="img" aria-label="Honey gourami illustration">
  <defs>
    <linearGradient id="honeyBody" x1="230" y1="285" x2="650" y2="400" gradientUnits="userSpaceOnUse">
      <stop offset="0" stop-color="#f8d26a" />
      <stop offset="1" stop-color="#dca24a" />
    </linearGradient>
    <linearGradient id="honeyTail" x1="150" y1="250" x2="310" y2="410" gradientUnits="userSpaceOnUse">
      <stop offset="0" stop-color="#f6a960" />
      <stop offset="1" stop-color="#d77d40" />
    </linearGradient>
    <linearGradient id="honeyFin" x1="455" y1="245" x2="610" y2="440" gradientUnits="userSpaceOnUse">
      <stop offset="0" stop-color="#79c6d6" />
      <stop offset="1" stop-color="#f3b95b" />
    </linearGradient>
  </defs>
  <rect width="900" height="675" fill="#edf4f5" />
  <circle cx="146" cy="116" r="38" fill="#fff" opacity=".8" />
  <circle cx="750" cy="124" r="26" fill="#fff" opacity=".62" />
  <circle cx="724" cy="510" r="58" fill="#fff" opacity=".34" />
  <path d="M198 352c74-100 198-143 372-128 53 5 102 19 149 45-28 61-77 110-146 146-148 77-307 66-375-63z" fill="url(#honeyBody)" />
  <path d="M184 352c-58-46-118-60-184-43 39 64 90 106 152 124 24-23 34-49 32-81z" fill="url(#honeyTail)" />
  <path d="M548 247c74-48 155-59 244-31-43 56-111 86-205 86z" fill="#d39b44" />
  <path d="M542 436c90 22 160 68 215 137-80 27-157 11-229-49z" fill="url(#honeyFin)" />
  <path d="M340 258c20-61 59-105 118-134 20 61 10 115-28 163z" fill="#f2cf68" />
  <path d="M372 428c22 72 67 127 133 165 23-73 8-135-49-185z" fill="#78c4d3" />
  <path d="M314 343c-51-54-121-69-212-45 40 79 101 115 184 107z" fill="#f7b467" />
  <path d="M333 324c84-19 164-17 240 7" fill="none" stroke="#fff8e9" stroke-width="10" stroke-linecap="round" opacity=".56" />
  <path d="M326 372c79-20 153-11 224 26" fill="none" stroke="#fff8e9" stroke-width="9" stroke-linecap="round" opacity=".42" />
  <path d="M430 390c37 26 68 61 95 103" fill="none" stroke="#83d5df" stroke-width="8" stroke-linecap="round" opacity=".6" />
  <path d="M417 398c34 34 60 72 78 116" fill="none" stroke="#83d5df" stroke-width="8" stroke-linecap="round" opacity=".6" />
  <circle cx="512" cy="309" r="15" fill="#1b2330" />
  <circle cx="517" cy="304" r="4" fill="#fff" />
</svg>
