<svg xmlns="http://www.w3.org/2000/svg" viewBox="0 0 900 1600"><g fill="none" stroke="#5a9c86" stroke-linecap="round"><path stroke-width="22" d="M82 1538c-5-203 25-364 91-486m-48 337c-51-87-65-169-43-246m92 206c61-91 78-182 51-274m-30 463c21-184 98-302 230-355"/><path stroke="#75ae90" stroke-width="17" d="M265 1553c-3-143 27-267 91-369m-39 233c-37-74-42-144-13-211m31 184c52-68 71-137 55-207"/></g><g fill="#a6987f"><ellipse cx="75" cy="1566" rx="80" ry="32"/><ellipse cx="195" cy="1548" rx="101" ry="42"/><ellipse cx="348" cy="1571" rx="91" ry="33"/><ellipse cx="502" cy="1553" rx="111" ry="38"/><ellipse cx="680" cy="1570" rx="130" ry="44"/></g><g fill="#689eaa" opacity=".72"><circle cx="122" cy="510" r="19"/><circle cx="165" cy="405" r="11"/><circle cx="204" cy="300" r="16"/><circle cx="278" cy="360" r="12"/></g><g fill="#d0ac64" stroke="#77674f" stroke-width="9"><path d="M390 1500h245l-23-106H413z"/><path d="M438 1394l72-104 72 104z"/><path d="M510 1290v-67h78v67"/><path d="M460 1435h43v50h-43z"/></g></svg>
