<svg xmlns="http://www.w3.org/2000/svg" viewBox="0 0 900 1600"><g fill="none" stroke="#579986" stroke-linecap="round"><path stroke-width="24" d="M82 1535c-1-229 27-383 83-505m-40 348c-44-88-54-166-28-237m83 201c61-95 78-187 50-275m-20 473c15-193 83-314 205-365"/><path stroke="#7daf94" stroke-width="16" d="M250 1546c0-151 34-272 101-361m-43 224c-35-67-40-132-14-196m34 171c51-62 69-126 54-193"/></g><g fill="#a3977c"><ellipse cx="65" cy="1564" rx="72" ry="30"/><ellipse cx="183" cy="1550" rx="112" ry="42"/><ellipse cx="348" cy="1572" rx="95" ry="35"/><ellipse cx="503" cy="1550" rx="100" ry="35"/><ellipse cx="664" cy="1570" rx="134" ry="45"/></g><g fill="#6a9ea9" opacity=".72"><circle cx="108" cy="510" r="14"/><circle cx="156" cy="420" r="19"/><circle cx="215" cy="315" r="10"/><circle cx="280" cy="250" r="22"/></g><g fill="#caa463" stroke="#78674d" stroke-width="9"><path d="M397 1495h242l-21-105H420z"/><path d="M431 1390h183l-25-91H458z"/><path d="M478 1299v-65h96v65"/><path d="M472 1437h40v48h-40z"/></g></svg>
