<svg xmlns="http://www.w3.org/2000/svg" viewBox="0 0 900 1600"><g fill="none" stroke="#5c9b86" stroke-linecap="round"><path stroke-width="22" d="M92 1510c-8-190 18-350 72-490m-48 332c-47-94-59-178-42-257m74 210c68-111 86-208 67-292m-32 502c-5-170 35-286 121-363"/><path stroke="#7aaf91" stroke-width="18" d="M235 1550c-21-168-3-316 57-444m-32 275c-38-88-42-168-10-240m30 166c55-71 76-145 63-220"/></g><g fill="#a89c82"><ellipse cx="80" cy="1550" rx="76" ry="35"/><ellipse cx="188" cy="1570" rx="92" ry="42"/><ellipse cx="332" cy="1548" rx="82" ry="31"/><ellipse cx="470" cy="1570" rx="108" ry="39"/><ellipse cx="620" cy="1552" rx="92" ry="34"/><ellipse cx="770" cy="1570" rx="118" ry="42"/></g><g fill="#79a9b0" opacity=".72"><circle cx="170" cy="420" r="18"/><circle cx="210" cy="330" r="10"/><circle cx="286" cy="520" r="13"/><circle cx="340" cy="390" r="22"/></g><g fill="#d2ae61" stroke="#7a704f" stroke-width="9"><path d="M390 1450h240l-16-170H406z"/><path d="M434 1280v-88l76-64 76 64v88"/><path d="M420 1370h50v80h-50zm112 0h50v80h-50z"/></g></svg>
