<svg xmlns="http://www.w3.org/2000/svg" viewBox="0 0 900 1600"><g fill="none" stroke="#4f9584" stroke-linecap="round"><path stroke-width="23" d="M110 1540c2-225 33-382 95-503m-56 348c-48-91-59-171-33-244m88 208c64-94 82-186 53-277m-12 468c4-193 68-322 190-384"/><path stroke="#7cae91" stroke-width="17" d="M282 1547c-8-154 21-279 86-378m-35 244c-31-73-31-143 2-209m30 178c50-65 69-132 55-202"/></g><g fill="#a3977f"><ellipse cx="74" cy="1563" rx="93" ry="37"/><ellipse cx="215" cy="1550" rx="80" ry="31"/><ellipse cx="358" cy="1571" rx="112" ry="43"/><ellipse cx="535" cy="1550" rx="83" ry="31"/><ellipse cx="680" cy="1570" rx="126" ry="44"/></g><g fill="#659ca8" opacity=".7"><circle cx="140" cy="490" r="14"/><circle cx="183" cy="375" r="23"/><circle cx="244" cy="290" r="10"/><circle cx="300" cy="430" r="18"/></g><g fill="#cba666" stroke="#796a4f" stroke-width="9"><path d="M405 1495h224l-27-112H432z"/><path d="M428 1383h180l-30-89H458z"/><path d="M466 1294v-62h108v62"/><path d="M474 1435h39v50h-39z"/></g></svg>
