<svg xmlns="http://www.w3.org/2000/svg" viewBox="0 0 900 1600" role="img" aria-labelledby="title desc"><title id="title">Shipwreck aquarium</title><desc id="desc">A transparent vector aquarium scene with a weathered shipwreck bow and wheel, vallisneria, crypt plants, sand, pebbles and bubbles.</desc><defs><linearGradient id="sand" x1="0" y1="0" x2="0" y2="1"><stop stop-color="#ecd9a1"/><stop offset="1" stop-color="#c7a96d"/></linearGradient><linearGradient id="stone" x1="0" y1="0" x2="1" y2="1"><stop stop-color="#b8c8bc"/><stop offset=".48" stop-color="#81968d"/><stop offset="1" stop-color="#526a65"/></linearGradient><linearGradient id="darkStone" x1="0" y1="0" x2="1" y2="1"><stop stop-color="#899c94"/><stop offset="1" stop-color="#3f5653"/></linearGradient><linearGradient id="leaf" x1="0" y1="0" x2="1" y2="1"><stop stop-color="#73c894"/><stop offset="1" stop-color="#2b7767"/></linearGradient><linearGradient id="leafDark" x1="0" y1="0" x2="1" y2="1"><stop stop-color="#4fa87b"/><stop offset="1" stop-color="#205f58"/></linearGradient><linearGradient id="redLeaf" x1="0" y1="0" x2="1" y2="1"><stop stop-color="#bc7972"/><stop offset=".52" stop-color="#786872"/><stop offset="1" stop-color="#3e6961"/></linearGradient><linearGradient id="wood" x1="0" y1="0" x2="1" y2="1"><stop stop-color="#bd7d49"/><stop offset="1" stop-color="#70432f"/></linearGradient><linearGradient id="woodLight" x1="0" y1="0" x2="1" y2="1"><stop stop-color="#e0aa6b"/><stop offset="1" stop-color="#995c3c"/></linearGradient><linearGradient id="terracotta" x1="0" y1="0" x2="1" y2="1"><stop stop-color="#df9b69"/><stop offset="1" stop-color="#98513f"/></linearGradient><linearGradient id="brass" x1="0" y1="0" x2="1" y2="1"><stop stop-color="#e8c66a"/><stop offset=".5" stop-color="#a98236"/><stop offset="1" stop-color="#69532d"/></linearGradient><radialGradient id="bubble" cx="32%" cy="25%" r="70%"><stop stop-color="#fff" stop-opacity=".95"/><stop offset=".25" stop-color="#c7efeb" stop-opacity=".62"/><stop offset="1" stop-color="#69aaa9" stop-opacity=".16"/></radialGradient><g id="b"><circle cx="50" cy="50" r="38" fill="url(#bubble)" stroke="#6eaaa8" stroke-width="6" stroke-opacity=".72"/><path d="M29 43c3-10 10-17 20-20" fill="none" stroke="#fff" stroke-width="7" stroke-linecap="round" stroke-opacity=".82"/></g></defs><g><use href="#b" transform="translate(118 820) scale(0.47)" opacity="0.94"/><use href="#b" transform="translate(169 684) scale(0.28)" opacity="0.72"/><use href="#b" transform="translate(129 551) scale(0.39)" opacity="0.84"/><use href="#b" transform="translate(183 421) scale(0.23)" opacity="0.66"/><use href="#b" transform="translate(697 900) scale(0.31)" opacity="0.78"/><use href="#b" transform="translate(737 771) scale(0.48)" opacity="0.92"/><use href="#b" transform="translate(704 640) scale(0.25)" opacity="0.69"/><use href="#b" transform="translate(755 526) scale(0.34)" opacity="0.79"/></g><g transform="translate(-45 1510) scale(0.67 0.67)" fill="url(#leafDark)" stroke="#245e58" stroke-width="10.44776119402985" stroke-linejoin="round"><path d="M0 0c-15-150-5-279 32-388 28-82 63-142 105-180-19 72-49 151-64 234C55-234 58-122 78 0z"/><path d="M44 0c20-146 58-259 113-338 43-62 87-99 133-110-47 47-84 104-111 170C149-205 133-112 125 0z"/><path d="M-28 0c-43-130-53-244-30-340 18-76 47-134 86-175-6 69-14 148-5 232C31-196 52-101 75 0z"/></g><g transform="translate(890 1518) scale(-0.62 0.62)" fill="url(#leafDark)" stroke="#245e58" stroke-width="11.290322580645162" stroke-linejoin="round"><path d="M0 0c-15-150-5-279 32-388 28-82 63-142 105-180-19 72-49 151-64 234C55-234 58-122 78 0z"/><path d="M44 0c20-146 58-259 113-338 43-62 87-99 133-110-47 47-84 104-111 170C149-205 133-112 125 0z"/><path d="M-28 0c-43-130-53-244-30-340 18-76 47-134 86-175-6 69-14 148-5 232C31-196 52-101 75 0z"/></g><g stroke="#563a2f" stroke-linejoin="round"><path d="M137 1518l47-360 382 53 169 307z" fill="url(#wood)" stroke-width="13"/><path d="M194 1201l326 47 54 88-394-54z" fill="#d29255" stroke-width="10"/><path d="M172 1348l462 65M158 1436l528 25" fill="none" stroke="#e3aa6c" stroke-width="12" opacity=".58"/><path d="M248 1158l20-164 32 4-13 168m188 48 22-174 31 5-13 176" fill="none" stroke="#754832" stroke-width="22"/><path d="M232 1040h115m205 54h103" fill="none" stroke="#8d5839" stroke-width="18" stroke-linecap="round"/></g><g transform="translate(541 1266)" fill="none" stroke="#6b482f" stroke-width="15"><circle r="92"/><circle r="24" fill="#b57945"/><path d="M0-92V92M-92 0H92M-65-65L65 65M65-65L-65 65"/></g><path d="M705 1510l-47-235c-9-46 21-87 66-94 42-7 77 19 83 58 6 42-22 80-63 87l-42 7" fill="none" stroke="#7d6f4d" stroke-width="17" stroke-linecap="round"/><g transform="translate(650 1520) scale(0.74)" fill="url(#redLeaf)" stroke="#3d5f5a" stroke-width="9.45945945945946" stroke-linejoin="round"><path d="M0 0c-42-90-50-168-23-232 23-55 66-71 91-35 25 38-12 127-68 267z"/><path d="M28 3c-5-113 23-200 80-251 46-42 87-28 83 16-5 54-78 136-163 235z"/><path d="M58 5c33-93 83-158 150-187 54-23 87 1 71 42-19 48-113 99-221 145z"/><path d="M-18 2c-64-75-89-145-72-209 14-52 55-66 79-31 24 37 11 117-7 240z"/></g><g stroke="#3e615c" stroke-width="9" stroke-linejoin="round"><path d="M15 1516c5-48 53-77 80-77s63 28 66 77z" fill="#718a82"/><path d="M713 1532c5-51 64-82 98-82s77 30 80 82z" fill="#8ea097"/></g><path d="M0 1498c83-25 164-21 242 12 70 30 143 28 219-5 70-31 141-29 213 6 68 33 143 31 226-7v96H0z" fill="url(#sand)" stroke="#836d49" stroke-width="10" stroke-linejoin="round"/><path d="M18 1520c76-18 148-13 216 15 78 32 154 30 227-2 72-31 141-28 208 5 68 34 139 31 214-9" fill="none" stroke="#f3e7b9" stroke-width="10" stroke-linecap="round" opacity=".72"/><g stroke="#5c5d53" stroke-width="5"><ellipse cx="51" cy="1567" rx="29" ry="14" fill="#a78d64" transform="rotate(-8 51 1567)"/><ellipse cx="129" cy="1544" rx="23" ry="12" fill="#d2b77c" transform="rotate(12 129 1544)"/><ellipse cx="218" cy="1577" rx="34" ry="13" fill="#887e69" transform="rotate(6 218 1577)"/><ellipse cx="324" cy="1549" rx="26" ry="12" fill="#bc9b68" transform="rotate(-7 324 1549)"/><ellipse cx="433" cy="1576" rx="35" ry="14" fill="#dbc188" transform="rotate(5 433 1576)"/><ellipse cx="543" cy="1546" rx="25" ry="12" fill="#95836a" transform="rotate(-10 543 1546)"/><ellipse cx="651" cy="1574" rx="33" ry="14" fill="#b59668" transform="rotate(7 651 1574)"/><ellipse cx="759" cy="1549" rx="27" ry="12" fill="#d2b77c" transform="rotate(-6 759 1549)"/><ellipse cx="853" cy="1577" rx="31" ry="13" fill="#8d7e69" transform="rotate(9 853 1577)"/></g></svg>