<svg xmlns="http://www.w3.org/2000/svg" xmlns:xlink="http://www.w3.org/1999/xlink" aria-labelledby="title desc" viewBox="0 0 900 1600"><title>Treasure chest aquarium</title><desc>A transparent vector aquarium scene with a sunken treasure chest, ceramic amphora, aquatic plants, sand, pebbles and bubbles.</desc><defs><linearGradient id="i" x1="0" x2="0" y1="0" y2="1"><stop stop-color="#efdca4"/><stop offset="1" stop-color="#cbaa6d"/></linearGradient><linearGradient id="g" x1="0" x2="1" y1="0" y2="1"><stop stop-color="#b86f3d"/><stop offset="1" stop-color="#6e392b"/></linearGradient><linearGradient id="h" x1="0" x2="1" y1="0" y2="1"><stop stop-color="#f0cf6a"/><stop offset=".48" stop-color="#c99738"/><stop offset="1" stop-color="#8d642a"/></linearGradient><linearGradient id="f" x1="0" x2="1" y1="0" y2="1"><stop stop-color="#d99865"/><stop offset="1" stop-color="#9b5543"/></linearGradient><linearGradient id="b" x1="0" x2="1" y1="0" y2="1"><stop stop-color="#71c792"/><stop offset="1" stop-color="#2e806c"/></linearGradient><linearGradient id="e" x1="0" x2="1" y1="0" y2="1"><stop stop-color="#bb746b"/><stop offset=".48" stop-color="#7e6b72"/><stop offset="1" stop-color="#466f66"/></linearGradient><g id="c"><circle cx="50" cy="50" r="38" fill="url(#a)" stroke="#6eaaa8" stroke-opacity=".72" stroke-width="6"/><path fill="none" stroke="#fff" stroke-linecap="round" stroke-opacity=".82" stroke-width="7" d="M29 43c3-10 10-17 20-20"/></g><g id="d" fill="url(#b)" stroke="#245f55" stroke-linejoin="round" stroke-width="5"><path d="M0 0c-35-10-56-32-61-65C-27-57-5-35 0 0z"/><path d="M0-31c30-13 53-36 66-68C33-95 9-72 0-31z"/><path d="M0-68c-29-11-48-31-56-59 30 5 50 25 56 59z"/><path d="M0-98c26-11 45-31 56-58-28 4-48 23-56 58z"/></g><radialGradient id="a" cx="32%" cy="25%" r="70%"><stop stop-color="#fff" stop-opacity=".95"/><stop offset=".25" stop-color="#c7efeb" stop-opacity=".62"/><stop offset="1" stop-color="#69aaa9" stop-opacity=".16"/></radialGradient></defs><use xlink:href="#c" opacity=".76" transform="matrix(.3 0 0 .3 259 1015)"/><use xlink:href="#c" transform="matrix(.5 0 0 .5 230 886)"/><use xlink:href="#c" opacity=".72" transform="matrix(.27 0 0 .27 282 747)"/><use xlink:href="#c" opacity=".9" transform="matrix(.42 0 0 .42 236 617)"/><use xlink:href="#c" opacity=".7" transform="matrix(.24 0 0 .24 291 497)"/><use xlink:href="#c" opacity=".76" transform="matrix(.3 0 0 .3 696 925)"/><use xlink:href="#c" opacity=".92" transform="matrix(.45 0 0 .45 729 801)"/><use xlink:href="#c" opacity=".68" transform="matrix(.25 0 0 .25 695 675)"/><path fill="none" stroke="#245f55" stroke-linecap="round" stroke-width="8" d="M76 1524c22-95 36-200 40-315q4.5-133.5-12-246m40 563c-3-101 2-203 15-304 12-96 30-177 54-242m611 545q-33-144-36-294c-2-91 5-170 20-237"/><use xlink:href="#d" transform="rotate(-5 15796.339 -457.688)"/><use xlink:href="#d" transform="rotate(4 -18057.43 2207.494)scale(.92)"/><use xlink:href="#d" transform="rotate(-7 9458.167 -356.942)scale(.84)"/><use xlink:href="#d" transform="rotate(5 -11832.554 1767.255)scale(.72)"/><use xlink:href="#d" transform="rotate(4 -19755.105 2854.537)scale(.94)"/><use xlink:href="#d" transform="rotate(-6 12178.94 -921.113)scale(.86)"/><use xlink:href="#d" transform="rotate(7 -9318.842 2055.162)scale(.76)"/><use xlink:href="#d" transform="rotate(-176 422.683 678.584)scale(1 -1)"/><use xlink:href="#d" transform="rotate(176 372.86 647.794)scale(.9 -.9)"/><use xlink:href="#d" transform="rotate(-174 426.634 554.22)scale(.8 -.8)"/><use xlink:href="#d" transform="rotate(177 387.318 533)scale(.7 -.7)"/><g fill="url(#e)" stroke="#375e58" stroke-linejoin="round" stroke-width="8"><path d="M540 1530c-32-102-33-190-4-256 26-58 67-77 91-46s4 91-20 139c-26 53-50 107-67 163z"/><path d="M574 1536c-5-108 15-191 58-240 37-42 78-42 90-7 12 38-26 88-61 127q-57 64.5-87 120z"/><path d="M604 1540c32-91 78-154 132-180 45-22 78-4 78 30 0 40-58 74-105 98-48 24-83 42-105 52z"/><path d="M518 1537c-53-75-76-145-63-201 11-48 48-69 76-42 29 28 15 83 2 126q-19.5 70.5-15 117z"/></g><path fill="none" stroke="#d4a38e" stroke-linecap="round" stroke-width="6" d="M546 1505c6-102 26-183 60-244m-15 252c29-89 66-158 109-206m-70 214c49-67 101-112 155-135m-279 126c-17-80-26-143-25-187" opacity=".56"/><g stroke="#3d6461" stroke-linejoin="round" stroke-width="9"><path fill="#7c9990" d="M5 1524c7-76 51-126 112-130 57-4 101 40 111 130z"/><path fill="#799088" d="M690 1525c9-74 53-122 112-124 50-2 87 33 98 98v40z"/><path fill="#b2c8bb" stroke="none" d="M83 1431c22-28 54-35 84-18 22 12 38 37 45 74-45-20-92-19-139 3-3-24 0-44 10-59"/></g><g stroke="#70483c" stroke-linejoin="round" stroke-width="10" transform="rotate(18 -4176.274 2972.01)"><path fill="url(#f)" d="M-72-45c-3-47 22-75 63-80v-34h52v35c42 8 63 39 56 87C92 17 60 54 8 73-44 55-70 16-72-45z"/><path fill="#e2a26d" d="M-20-166h74c11 0 17 8 17 18s-7 17-18 17h-73z"/><path fill="none" d="M-39-104c-34-16-59 6-59 39 0 26 16 45 42 48M69-98c30-9 48 13 45 39-2 22-16 36-39 39"/><path fill="none" stroke="#e9b17d" stroke-width="8" d="M-41-55c31 13 78 12 113-2" opacity=".7"/><ellipse cx="17" cy="-148" fill="#5a4037" stroke-width="7" rx="28" ry="10"/></g><g stroke="#55372e" stroke-linejoin="round" stroke-width="11"><path fill="url(#g)" d="M178 1361c3-76 47-124 111-124h105c65 0 109 48 112 124z"/><path fill="#d38a4c" d="M221 1358c4-50 33-80 75-80h91c42 0 71 30 76 80z"/><path fill="none" stroke="url(#h)" stroke-width="19" d="M246 1248v112m190-111v112"/><path fill="none" stroke="#edcd69" stroke-width="16" d="M187 1357h311"/><path fill="none" stroke="#e9ae68" stroke-linecap="round" stroke-width="8" d="M215 1322c69-27 163-27 249 0" opacity=".56"/></g><g stroke="#55372e" stroke-linejoin="round" stroke-width="11"><path fill="url(#g)" d="M160 1355h365l-24 188H184z"/><path fill="#9a5233" d="M196 1385h293l-16 126H212z"/><path fill="none" stroke="url(#h)" stroke-width="19" d="M183 1363h319m-325 90h314"/><path fill="none" stroke="url(#h)" stroke-width="18" d="m218 1360 9 181m232-181-10 181"/><path fill="url(#h)" d="M310 1407h66v76h-66z"/><path fill="#5a4131" stroke-width="7" d="M329 1425h28v33h-28z"/><path fill="none" stroke="#e39a58" stroke-linecap="round" stroke-width="8" d="M236 1397h53m104 0h48" opacity=".7"/></g><path fill="url(#i)" stroke="#876f49" stroke-linejoin="round" stroke-width="10" d="M0 1503c85-25 165-24 241 4q96 34.5 189 3c74-24 145-24 215 1 79 28 164 25 255-11v100H0z"/><path fill="none" stroke="#f6e8ba" stroke-linecap="round" stroke-width="10" d="M18 1522q117-25.5 216 9c66 23 130 22 192 2 77-25 151-23 222 3 74 27 152 23 236-13" opacity=".72"/><path fill="#d4b475" d="M133 1534c57-12 115-8 173 11 62 20 121 18 178-5q90-36 177 3c61 27 123 25 186-7v64H133z" opacity=".72"/><g stroke="#6d6049" stroke-width="5"><ellipse cx="53" cy="1567" fill="#9b8667" rx="28" ry="14" transform="rotate(-8 53 1567)"/><ellipse cx="129" cy="1545" fill="#d2b77c" rx="22" ry="12" transform="rotate(12 129 1545)"/><ellipse cx="216" cy="1576" fill="#8a806d" rx="34" ry="13" transform="rotate(6 216 1576)"/><ellipse cx="323" cy="1550" fill="#b99564" rx="25" ry="12" transform="rotate(-7 323 1550)"/><ellipse cx="432" cy="1575" fill="#dbc188" rx="35" ry="14" transform="rotate(5 432 1575)"/><ellipse cx="543" cy="1545" fill="#94836b" rx="25" ry="12" transform="rotate(-10 543 1545)"/><ellipse cx="650" cy="1573" fill="#b69567" rx="33" ry="14" transform="rotate(7 650 1573)"/><ellipse cx="761" cy="1548" fill="#d2b77c" rx="27" ry="12" transform="rotate(-6 761 1548)"/><ellipse cx="856" cy="1576" fill="#8f7e68" rx="32" ry="13" transform="rotate(9 856 1576)"/></g></svg>