<svg xmlns="http://www.w3.org/2000/svg" viewBox="0 0 900 1600"><g fill="none" stroke="#4f988b" stroke-linecap="round"><path stroke-width="24" d="M118 1530c8-241 45-391 116-530m-75 367c-50-92-68-174-51-246m96 210c65-82 92-170 80-264m-42 484c14-201 84-331 208-391"/><path stroke="#75ae91" stroke-width="17" d="M284 1552c-4-141 28-252 97-335m-40 207c-27-64-26-127 3-188m24 162c47-55 65-114 53-176"/></g><g fill="#9d937e"><ellipse cx="80" cy="1560" rx="92" ry="38"/><ellipse cx="225" cy="1548" rx="80" ry="33"/><ellipse cx="365" cy="1570" rx="105" ry="41"/><ellipse cx="535" cy="1550" rx="76" ry="30"/><ellipse cx="710" cy="1570" rx="140" ry="44"/></g><g fill="#6d9eab" opacity=".7"><circle cx="105" cy="510" r="12"/><circle cx="142" cy="430" r="20"/><circle cx="190" cy="300" r="9"/><circle cx="252" cy="380" r="14"/></g><g fill="#c49b70" stroke="#766551" stroke-width="9"><path d="M445 1492h190l-38-135H478z"/><path d="M430 1357l112-90 112 90z"/><path d="M505 1300v-58h74v58"/><path d="M526 1359h38v92h-38z"/></g></svg>
