<svg xmlns="http://www.w3.org/2000/svg" xmlns:xlink="http://www.w3.org/1999/xlink" aria-labelledby="title desc" viewBox="0 0 900 1600"><title>Planted driftwood aquarium</title><desc>A polished vector illustration of aquarium plants, smooth river stones, driftwood, sand and bubbles on a transparent background.</desc><defs><linearGradient id="e" x1="0" x2="1" y1="0" y2="1"><stop stop-color="#b97b48"/><stop offset="1" stop-color="#75452f"/></linearGradient><linearGradient id="f" x1="0" x2="1" y1="0" y2="1"><stop stop-color="#dfaa68"/><stop offset="1" stop-color="#9a5c39"/></linearGradient><linearGradient id="d" x1="0" x2="1" y1="0" y2="1"><stop stop-color="#72c58f"/><stop offset="1" stop-color="#2d806c"/></linearGradient><linearGradient id="c" x1="0" x2="1" y1="0" y2="1"><stop stop-color="#4fa177"/><stop offset="1" stop-color="#24635b"/></linearGradient><linearGradient id="g" x1="0" x2="1" y1="0" y2="1"><stop stop-color="#a9c3b7"/><stop offset="1" stop-color="#657f7a"/></linearGradient><linearGradient id="h" x1="0" x2="0" y1="0" y2="1"><stop stop-color="#e9d69c"/><stop offset="1" stop-color="#c6a96b"/></linearGradient><radialGradient id="a" cx="32%" cy="26%" r="68%"><stop stop-color="#fff" stop-opacity=".9"/><stop offset=".24" stop-color="#bce9e6" stop-opacity=".52"/><stop offset="1" stop-color="#71b9b5" stop-opacity=".12"/></radialGradient><g id="b"><circle cx="50" cy="50" r="38" fill="url(#a)" stroke="#70aaa8" stroke-opacity=".68" stroke-width="6"/><path fill="none" stroke="#fff" stroke-linecap="round" stroke-opacity=".8" stroke-width="7" d="M29 43c3-10 10-17 20-20"/></g></defs><use xlink:href="#b" transform="matrix(.47 0 0 .47 106 598)"/><use xlink:href="#b" opacity=".8" transform="matrix(.29 0 0 .29 154 478)"/><use xlink:href="#b" opacity=".92" transform="matrix(.61 0 0 .61 123 352)"/><use xlink:href="#b" opacity=".72" transform="matrix(.35 0 0 .35 194 250)"/><use xlink:href="#b" opacity=".76" transform="matrix(.34 0 0 .34 717 530)"/><use xlink:href="#b" opacity=".88" transform="matrix(.53 0 0 .53 756 418)"/><use xlink:href="#b" opacity=".68" transform="matrix(.27 0 0 .27 730 307)"/><g stroke="#245e58" stroke-linejoin="round" stroke-width="8"><path fill="url(#c)" d="M75 1512q-19.5-192 18-312c24-76 50-127 80-153-4 55-25 123-37 189-16 84-12 178 4 276z"/><path fill="url(#d)" d="M120 1518c10-119 29-216 57-290 27-73 61-129 99-164-13 59-42 124-59 190-20 78-25 166-20 264z"/><path fill="#3b8d72" d="M47 1520c-17-113-16-211 2-294 16-75 39-130 68-166 0 55-17 118-26 184-11 82-4 174 19 276z"/><path fill="#3a8a6c" d="M825 1518c11-112 6-204-15-277-19-67-46-116-79-147 8 51 31 107 45 168 17 73 18 158 7 256z"/><path fill="url(#c)" d="M865 1523c7-121-1-218-26-290-22-67-51-113-86-139 13 49 40 102 58 161 22 72 28 161 19 268z"/></g><g stroke="#3c6663" stroke-width="9"><path fill="#78968d" d="M13 1496c8-78 55-132 120-137 57-5 107 36 127 117l-4 66H16z"/><path fill="#9eb8aa" d="M82 1396c17-51 52-78 96-73 39 4 68 36 74 89-52-22-109-27-170-16z"/><path fill="#6e8982" d="M669 1508c6-81 53-141 123-149 55-7 100 24 108 85v99H671z"/></g><path fill="url(#e)" stroke="#593b31" stroke-linejoin="round" stroke-width="13" d="M213 1539c79-44 143-96 201-159 55-60 111-96 178-103 72-7 149 24 222 96-70-30-127-37-179-22-63 18-108 70-165 113-63 48-135 78-218 89z"/><path fill="url(#f)" d="M290 1516c59-38 110-83 158-135 43-46 87-73 135-80 45-7 92 4 142 33-50-9-93-4-130 16-42 23-77 67-122 101q-76.5 58.5-183 78z" opacity=".8"/><path fill="none" stroke="#edbd78" stroke-linecap="round" stroke-width="10" d="M381 1450c48-46 93-85 137-109 45-24 92-31 143-20" opacity=".62"/><path fill="#68432f" stroke="#4d342b" stroke-width="7" d="M575 1371c-9-16-5-32 10-44 15-11 33-11 47 0 13 11 15 27 5 43-10 15-23 23-37 24-11 0-20-8-25-23z"/><path fill="none" stroke="#c98a51" stroke-linecap="round" stroke-width="6" d="M592 1357c8-9 17-12 28-10"/><g stroke="#235b51" stroke-linejoin="round" stroke-width="8"><path fill="url(#d)" d="M225 1502c-45-68-69-138-55-184 13-40 50-47 72-14 24 37 11 111-17 198z"/><path fill="#67b67d" d="M243 1511c-19-91-10-171 27-203 32-27 65-8 65 31 0 47-41 110-92 172z"/><path fill="url(#c)" d="M265 1521c19-86 54-153 97-172 37-17 62 11 49 48-16 45-75 88-146 124z"/><path fill="#58a977" d="M715 1516c-27-82-25-154 7-188 28-29 62-14 67 25 6 45-28 105-74 163z"/><path fill="url(#d)" d="M744 1524c12-78 42-140 83-159 35-16 61 9 50 43-13 42-67 83-133 116z"/></g><path fill="none" stroke="#d1e8ae" stroke-linecap="round" stroke-width="6" d="M217 1482c-16-60-22-111-16-152m51 157c8-66 26-118 53-151m-18 164q49.5-87 102-120m342 113c5-59 17-105 36-140m3 152c27-53 56-90 87-112" opacity=".58"/><g stroke="#3b615e" stroke-linejoin="round" stroke-width="10"><path fill="url(#g)" d="M90 1537c14-101 74-164 158-159 75 4 129 66 134 159z"/><path fill="#c5d6c8" stroke="none" d="M155 1409c30-27 73-29 108-7 23 14 38 38 45 70-49-31-103-33-163-7 0-21 3-40 10-56" opacity=".72"/><path fill="#829c93" d="M45 1540c7-63 45-101 98-98 47 2 80 39 84 98z"/><path fill="#728a83" d="M289 1540c8-54 42-87 88-85 42 2 73 35 76 85z"/></g><path fill="url(#h)" stroke="#876e47" stroke-linejoin="round" stroke-width="10" d="M0 1513q112.5-33 207-9c68 17 133 16 196-3 70-21 141-21 214 1 91 27 185 25 283-5v103H0z"/><path fill="none" stroke="#f3e6b7" stroke-linecap="round" stroke-width="10" d="M16 1530c70-17 133-17 190-2 67 18 131 17 192-1 76-23 151-21 226 3 86 27 172 24 260-9" opacity=".72"/><g stroke="#6f6248" stroke-width="5"><ellipse cx="67" cy="1563" fill="#a98d61" rx="29" ry="14" transform="rotate(-9 67 1563)"/><ellipse cx="142" cy="1542" fill="#d1b87b" rx="22" ry="12" transform="rotate(12 142 1542)"/><ellipse cx="224" cy="1574" fill="#8f8064" rx="31" ry="13" transform="rotate(6 224 1574)"/><ellipse cx="334" cy="1547" fill="#bd9d68" rx="25" ry="12" transform="rotate(-7 334 1547)"/><ellipse cx="438" cy="1571" fill="#dbc083" rx="34" ry="14" transform="rotate(5 438 1571)"/><ellipse cx="548" cy="1541" fill="#988465" rx="24" ry="12" transform="rotate(-11 548 1541)"/><ellipse cx="647" cy="1570" fill="#b39768" rx="32" ry="14" transform="rotate(8 647 1570)"/><ellipse cx="757" cy="1548" fill="#d2b77b" rx="27" ry="12" transform="rotate(-6 757 1548)"/><ellipse cx="850" cy="1575" fill="#958066" rx="31" ry="13" transform="rotate(9 850 1575)"/></g></svg>