<svg xmlns="http://www.w3.org/2000/svg" viewBox="0 0 900 1600"><g fill="none" stroke="#579985" stroke-linecap="round"><path stroke-width="22" d="M93 1544c-11-191 17-345 83-470m-41 320c-48-78-61-155-38-231m90 190c58-91 71-180 40-267m-7 458c29-187 107-304 233-350"/><path stroke="#7db296" stroke-width="17" d="M270 1549c-9-160 21-293 89-397m-38 253c-32-66-34-130-5-194m34 166c53-58 77-119 66-183"/></g><g fill="#a79b83"><ellipse cx="82" cy="1568" rx="89" ry="34"/><ellipse cx="220" cy="1548" rx="96" ry="39"/><ellipse cx="364" cy="1572" rx="85" ry="32"/><ellipse cx="510" cy="1550" rx="126" ry="44"/><ellipse cx="705" cy="1572" rx="112" ry="38"/></g><g fill="#6b9fa9" opacity=".72"><circle cx="120" cy="400" r="20"/><circle cx="175" cy="305" r="11"/><circle cx="236" cy="220" r="17"/><circle cx="300" cy="380" r="13"/></g><g fill="#d1ad62" stroke="#77684e" stroke-width="9"><path d="M385 1496h260l-34-124H420z"/><path d="M435 1372l88-107 88 107z"/><path d="M504 1265v-68h81v68"/><path d="M456 1433h42v53h-42z"/></g></svg>
