<svg xmlns="http://www.w3.org/2000/svg" viewBox="0 0 900 1600"><g fill="none" stroke="#579884" stroke-linecap="round"><path stroke-width="22" d="M90 1535c-6-221 24-375 88-496m-47 345c-47-84-60-164-37-240m91 206c61-96 77-188 49-275m-23 462c19-190 94-309 220-365"/><path stroke="#7db396" stroke-width="17" d="M264 1548c-5-153 28-278 98-373m-43 238c-34-71-37-137-8-201m35 176c54-59 74-124 59-193"/></g><g fill="#a89b80"><ellipse cx="70" cy="1566" rx="77" ry="30"/><ellipse cx="194" cy="1548" rx="103" ry="40"/><ellipse cx="352" cy="1572" rx="91" ry="34"/><ellipse cx="495" cy="1550" rx="115" ry="39"/><ellipse cx="674" cy="1570" rx="116" ry="39"/></g><g fill="#6a9fa9" opacity=".72"><circle cx="112" cy="480" r="13"/><circle cx="152" cy="370" r="22"/><circle cx="213" cy="265" r="11"/><circle cx="277" cy="345" r="17"/></g><g fill="#cba766" stroke="#78674c" stroke-width="9"><path d="M396 1496h245l-25-116H423z"/><path d="M432 1380h178l-21-88H456z"/><path d="M478 1292v-61h101v61"/><path d="M474 1430h39v55h-39z"/></g></svg>
