<svg xmlns="http://www.w3.org/2000/svg" viewBox="0 0 900 1600"><g fill="none" stroke="#5c9d82" stroke-linecap="round"><path stroke-width="23" d="M78 1540c-1-210 19-366 73-480m-40 326c-44-75-56-150-36-224m71 194c55-95 70-183 45-266m-5 450c29-195 100-315 214-362"/><path stroke="#73ac91" stroke-width="16" d="M246 1536c-15-166 7-306 68-420m-31 258c-35-72-38-141-8-205m31 168c50-66 67-135 51-205"/></g><g fill="#aa9c82"><ellipse cx="65" cy="1567" rx="72" ry="29"/><ellipse cx="170" cy="1548" rx="88" ry="39"/><ellipse cx="316" cy="1572" rx="95" ry="35"/><ellipse cx="470" cy="1558" rx="112" ry="42"/><ellipse cx="650" cy="1572" rx="95" ry="34"/></g><g fill="#6e9fa8" opacity=".72"><circle cx="210" cy="500" r="18"/><circle cx="246" cy="380" r="11"/><circle cx="292" cy="270" r="19"/><circle cx="348" cy="450" r="10"/></g><g fill="#d0a95f" stroke="#79684d" stroke-width="9"><path d="M420 1485h238l-18-94H438z"/><path d="M445 1391l30-118h125l31 118z"/><path d="M500 1273v-66h73v66"/><path d="M470 1430h38v55h-38z"/></g></svg>
