<svg xmlns="http://www.w3.org/2000/svg" viewBox="0 0 900 1600"><g fill="none" stroke="#549787" stroke-linecap="round"><path stroke-width="22" d="M104 1540c-10-178 22-338 95-477m-59 321c-43-79-56-157-40-233m94 190c58-88 75-175 53-260m-31 462c10-202 76-321 192-382"/><path stroke="#80b39a" stroke-width="18" d="M296 1545c4-164 43-284 119-361m-56 233c-38-69-45-137-20-203m40 165c52-58 74-122 64-190"/></g><g fill="#a4967a"><ellipse cx="72" cy="1555" rx="88" ry="34"/><ellipse cx="202" cy="1570" rx="111" ry="43"/><ellipse cx="365" cy="1552" rx="78" ry="31"/><ellipse cx="510" cy="1570" rx="123" ry="45"/><ellipse cx="702" cy="1552" rx="96" ry="34"/></g><g fill="#659dab" opacity=".7"><circle cx="96" cy="430" r="15"/><circle cx="130" cy="335" r="9"/><circle cx="178" cy="240" r="21"/><circle cx="270" cy="430" r="13"/></g><g fill="#c7a568" stroke="#78694d" stroke-width="9"><path d="M388 1500h257l-31-142H417z"/><path d="M418 1358h200l-22-96H440z"/><path d="M451 1262v-74h120v74"/><path d="M500 1359h42v88h-42z"/></g></svg>
