<svg xmlns="http://www.w3.org/2000/svg" viewBox="0 0 900 1600"><g fill="none" stroke="#559681" stroke-linecap="round"><path stroke-width="23" d="M104 1540c-9-204 20-362 83-489m-43 335c-42-78-54-154-34-228m85 196c61-88 77-177 50-266m-17 452c23-188 97-303 223-350"/><path stroke="#7caf92" stroke-width="17" d="M274 1546c-7-158 24-284 94-376m-40 240c-33-71-34-137-5-201m35 176c51-61 70-125 55-193"/></g><g fill="#a4967d"><ellipse cx="73" cy="1566" rx="88" ry="34"/><ellipse cx="218" cy="1550" rx="83" ry="31"/><ellipse cx="350" cy="1572" rx="116" ry="42"/><ellipse cx="530" cy="1550" rx="89" ry="31"/><ellipse cx="690" cy="1570" rx="126" ry="43"/></g><g fill="#699da8" opacity=".72"><circle cx="123" cy="470" r="17"/><circle cx="168" cy="360" r="12"/><circle cx="220" cy="270" r="21"/><circle cx="300" cy="390" r="10"/></g><g fill="#d2ae64" stroke="#76664c" stroke-width="9"><path d="M390 1495h251l-31-135H421z"/><path d="M421 1360l111-92 111 92z"/><path d="M500 1268v-66h77v66"/><path d="M468 1431h42v54h-42z"/></g></svg>
